<?xml version="1.0" encoding="UTF-8" standalone="no"?>
<svg
   xmlns:dc="http://purl.org/dc/elements/1.1/"
   xmlns:cc="http://creativecommons.org/ns#"
   xmlns:rdf="http://www.w3.org/1999/02/22-rdf-syntax-ns#"
   xmlns:svg="http://www.w3.org/2000/svg"
   xmlns="http://www.w3.org/2000/svg"
   xmlns:sodipodi="http://sodipodi.sourceforge.net/DTD/sodipodi-0.dtd"
   xmlns:inkscape="http://www.inkscape.org/namespaces/inkscape"
   inkscape:version="1.0 (4035a4f, 2020-05-01)"
   sodipodi:docname="radkefig1.svg"
   viewBox="0 0 757.28629 752.31469"
   height="752.3147"
   width="757.28632"
   xml:space="preserve"
   id="svg10"
   version="1.1"><metadata
     id="metadata16"><rdf:RDF><cc:Work
         rdf:about=""><dc:format>image/svg+xml</dc:format><dc:type
           rdf:resource="http://purl.org/dc/dcmitype/StillImage" /><dc:title></dc:title></cc:Work></rdf:RDF></metadata><defs
     id="defs14" /><sodipodi:namedview
     fit-margin-bottom="20"
     fit-margin-right="20"
     fit-margin-left="20"
     fit-margin-top="20"
     inkscape:current-layer="g20"
     inkscape:window-maximized="0"
     inkscape:window-y="23"
     inkscape:window-x="0"
     inkscape:cy="456.61784"
     inkscape:cx="684.02288"
     inkscape:zoom="0.57667828"
     showgrid="false"
     id="namedview12"
     inkscape:window-height="855"
     inkscape:window-width="1440"
     inkscape:pageshadow="2"
     inkscape:pageopacity="0"
     guidetolerance="10"
     gridtolerance="10"
     objecttolerance="10"
     borderopacity="1"
     bordercolor="#666666"
     pagecolor="#ffffff" /><g
     transform="matrix(0,1.3333333,1.3333333,0,-27.980855,-44.959998)"
     inkscape:label="radkefig1"
     inkscape:groupmode="layer"
     id="g18"><g
       transform="scale(0.12)"
       id="g20"><path
         id="path22"
         style="fill:#cce1ff;fill-opacity:1;fill-rule:evenodd;stroke:none"
         d="m 865,1684.92 c 0,-51 42,-93 93,-93 h 369 c 51,0 92,42 92,93 v 2559 c 0,51 -41,93 -92,93 H 958 c -51,0 -93,-42 -93,-93" /><path
         id="path24"
         style="fill:none;stroke:#4f81bd;stroke-width:2.0833;stroke-linecap:round;stroke-linejoin:round;stroke-miterlimit:10;stroke-dasharray:none;stroke-opacity:1"
         d="m 865,1684.92 c 0,-51 42,-93 93,-93 h 369 c 51,0 92,42 92,93 v 2559 c 0,51 -41,93 -92,93 H 958 c -51,0 -93,-42 -93,-93 z" /><path
         id="path28"
         style="fill:none;stroke:#4f81bd;stroke-width:9.375;stroke-linecap:round;stroke-linejoin:round;stroke-miterlimit:10;stroke-dasharray:none;stroke-opacity:1"
         d="m 2182,1735.92 c 0,-228 184,-413 412,-413 h 1649 c 228,0 412,185 412,413 v 2373 c 0,228 -184,413 -412,413 H 2594 c -228,0 -412,-185 -412,-413 z" /><path
         id="path32"
         style="fill:none;stroke:#4f81bd;stroke-width:8.75;stroke-linecap:round;stroke-linejoin:round;stroke-miterlimit:10;stroke-dasharray:none;stroke-opacity:1"
         d="m 2348.1732,1950.735 c 0,-207 168,-374 374,-374 h 1497 c 206,0 374,167 374,374 v 1976 c 0,207 -168,374 -374,374 h -1497 c -206,0 -374,-167 -374,-374 z" /><g
         transform="scale(8.33333)"
         id="g34" /><path
         id="path36"
         style="fill:#d8d8d8;fill-opacity:1;fill-rule:evenodd;stroke:none"
         d="m 2242,3376.92 26,32 -206,163 51,64 206,-162 26,32 17,-119" /><path
         id="path38"
         style="fill:none;stroke:#4f81bd;stroke-width:2.0833;stroke-linecap:round;stroke-linejoin:round;stroke-miterlimit:10;stroke-dasharray:none;stroke-opacity:1"
         d="m 2242,3376.92 26,32 -206,163 51,64 206,-162 26,32 17,-119 z" /><path
         id="path40"
         style="fill:#d8d8d8;fill-opacity:1;fill-rule:evenodd;stroke:none"
         d="m 2408,2468.92 c 0,-22 18,-39 39,-39 h 156 c 22,0 39,17 39,39 v 1034 c 0,21 -17,39 -39,39 h -156 c -21,0 -39,-18 -39,-39" /><path
         id="path42"
         style="fill:none;stroke:#4f81bd;stroke-width:2.0833;stroke-linecap:round;stroke-linejoin:round;stroke-miterlimit:10;stroke-dasharray:none;stroke-opacity:1"
         d="m 2408,2468.92 c 0,-22 18,-39 39,-39 h 156 c 22,0 39,17 39,39 v 1034 c 0,21 -17,39 -39,39 h -156 c -21,0 -39,-18 -39,-39 z" /><path
         id="path44"
         style="fill:#d8d8d8;fill-opacity:1;fill-rule:evenodd;stroke:none"
         d="m 2321,2349.92 -28,30 -175,-158 -55,61 175,158 -28,31 143,18" /><path
         id="path46"
         style="fill:none;stroke:#4f81bd;stroke-width:2.0833;stroke-linecap:round;stroke-linejoin:round;stroke-miterlimit:10;stroke-dasharray:none;stroke-opacity:1"
         d="m 2321,2349.92 -28,30 -175,-158 -55,61 175,158 -28,31 143,18 z" /><g
         transform="matrix(8.33333,0,0,8.33333,16.256894,-10.837933)"
         id="g48"><text
           y="302.12607"
           x="315.62106"
           id="text52"
           style="font-variant:normal;font-weight:bold;font-size:9.96284px;font-family:Calibri;-inkscape-font-specification:'Calibri Bold';writing-mode:lr-tb;fill:#000000;fill-opacity:1;fill-rule:nonzero;stroke:none;stroke-width:1.05;stroke-miterlimit:10;stroke-dasharray:none"
           transform="matrix(0,1.000285,0.9997151,0,0,0)"><tspan
             style="stroke-width:1.05;stroke-miterlimit:10;stroke-dasharray:none"
             id="tspan50"
             sodipodi:role="line"
             y="302.12607"
             x="315.62106 321.85931 324.37863 329.05731 336.73517 341.41385 345.01285 350.41132 355.80981 363.48767 367.68649 373.08499 378.48346 383.52203 387.48093 389.88028 395.27878">Highgroupcohesion</tspan></text><text
           id="text56"
           style="font-variant:normal;font-weight:bold;font-size:12.0066px;font-family:Calibri;-inkscape-font-specification:'Calibri Bold';writing-mode:lr-tb;fill:#000000;fill-opacity:1;fill-rule:nonzero;stroke:none"
           transform="matrix(-1,0,0,0.9994503,462.72,175.071)"><tspan
             id="tspan54"
             sodipodi:role="line"
             y="0"
             x="0 8.159997 14.640002 18.840002 22.438173 30.118164 34.198162 40.678162 47.158169 59.038143">Out-Group(</tspan></text><text
           id="text60"
           style="font-style:italic;font-variant:normal;font-weight:bold;font-size:12.0066px;font-family:Calibri;-inkscape-font-specification:'Calibri, BoldItalic';writing-mode:lr-tb;fill:#000000;fill-opacity:1;fill-rule:nonzero;stroke:none"
           transform="matrix(-1,0,0,0.9994503,399.96,175.071)"><tspan
             id="tspan58"
             sodipodi:role="line"
             y="0"
             x="0 7.6799912 13.559998 17.760012 21.960026 24.960028 30.840033 35.514179">Gerries)</tspan></text><text
           y="177.01636"
           x="-380.63202"
           id="text66"
           style="font-variant:normal;font-weight:bold;font-size:12.0033px;font-family:Calibri;-inkscape-font-specification:'Calibri Bold';writing-mode:lr-tb;fill:#000000;fill-opacity:1;fill-rule:nonzero;stroke:none;stroke-width:0.999725"
           transform="scale(-1.000275,0.99972508)"><tspan
             style="stroke-width:0.999725"
             id="tspan62"
             y="177.01636"
             x="-380.63202" /><tspan
             style="stroke-width:0.999725"
             id="tspan64"
             sodipodi:role="line"
             y="208.8251"
             x="-511.99606 -508.75699 -502.27878 -498.56161 -491.00369 -486.80484 -480.44662 -473.96841 -462.09171 -458.37271">In-Group(a Namibian diaspora) </tspan></text><text
           id="text78"
           style="font-variant:normal;font-weight:bold;font-size:12.0066px;font-family:Calibri;-inkscape-font-specification:'Calibri Bold';writing-mode:lr-tb;fill:#000000;fill-opacity:1;fill-rule:nonzero;stroke:none"
           transform="matrix(1,0,0,-0.9994503,357.24,528.231)"><tspan
             id="tspan76"
             sodipodi:role="line"
             x="27.239857 32.879868 39.359867 44.399868 47.399868 53.159859 58.919846 69.359856 75.233986 78.359856 84.839859 89.039856 92.039856 96.239868">SocialMajority</tspan></text></g><path
         id="path80"
         style="fill:#d8d8d8;fill-opacity:1;fill-rule:evenodd;stroke:none"
         d="m 1739,3635.92 c 0,-24 20,-44 44,-44 h 175 c 24,0 44,20 44,44 v 861 c 0,24 -20,44 -44,44 h -175 c -24,0 -44,-20 -44,-44" /><path
         id="path82"
         style="fill:none;stroke:#4f81bd;stroke-width:2.0833;stroke-linecap:round;stroke-linejoin:round;stroke-miterlimit:10;stroke-dasharray:none;stroke-opacity:1"
         d="m 1739,3635.92 c 0,-24 20,-44 44,-44 h 175 c 24,0 44,20 44,44 v 861 c 0,24 -20,44 -44,44 h -175 c -24,0 -44,-20 -44,-44 z" /><path
         id="path84"
         style="fill:#cce1ff;fill-opacity:1;fill-rule:evenodd;stroke:none"
         d="m 1082,1906.92 c 0,-21 17,-39 39,-39 h 156 c 21,0 39,18 39,39 v 2091 c 0,21 -18,39 -39,39 h -156 c -22,0 -39,-18 -39,-39" /><path
         id="path86"
         style="fill:none;stroke:#4f81bd;stroke-width:2.0833;stroke-linecap:round;stroke-linejoin:round;stroke-miterlimit:10;stroke-dasharray:none;stroke-opacity:1"
         d="m 1082,1906.92 c 0,-21 17,-39 39,-39 h 156 c 21,0 39,18 39,39 v 2091 c 0,21 -18,39 -39,39 h -156 c -22,0 -39,-18 -39,-39 z" /><path
         id="path88"
         style="fill:#d8d8d8;fill-opacity:1;fill-rule:evenodd;stroke:none"
         d="m 1552,3434.92 -27,31 -140,-127 -56,61 140,127 -27,30 116,-5" /><path
         id="path90"
         style="fill:none;stroke:#4f81bd;stroke-width:2.0833;stroke-linecap:round;stroke-linejoin:round;stroke-miterlimit:10;stroke-dasharray:none;stroke-opacity:1"
         d="m 1552,3434.92 -27,31 -140,-127 -56,61 140,127 -27,30 116,-5 z" /><path
         id="path92"
         style="fill:#d8d8d8;fill-opacity:1;fill-rule:evenodd;stroke:none"
         d="m 1739,2421.92 c 0,-24 20,-43 44,-43 h 175 c 24,0 44,19 44,43 v 777 c 0,24 -20,43 -44,43 h -175 c -24,0 -44,-19 -44,-43" /><path
         id="path94"
         style="fill:none;stroke:#4f81bd;stroke-width:2.0833;stroke-linecap:round;stroke-linejoin:round;stroke-miterlimit:10;stroke-dasharray:none;stroke-opacity:1"
         d="m 1739,2421.92 c 0,-24 20,-43 44,-43 h 175 c 24,0 44,19 44,43 v 777 c 0,24 -20,43 -44,43 h -175 c -24,0 -44,-19 -44,-43 z" /><path
         id="path96"
         style="fill:#d8d8d8;fill-opacity:1;fill-rule:evenodd;stroke:none"
         d="m 1426,2305.92 30,28 -113,119 61,57 112,-119 30,28 -4,-117" /><path
         id="path98"
         style="fill:none;stroke:#4f81bd;stroke-width:2.0833;stroke-linecap:round;stroke-linejoin:round;stroke-miterlimit:10;stroke-dasharray:none;stroke-opacity:1"
         d="m 1426,2305.92 30,28 -113,119 61,57 112,-119 30,28 -4,-117 z" /><path
         id="path100"
         style="fill:#92d050;fill-opacity:1;fill-rule:evenodd;stroke:none"
         d="m 1740,565.922 c 0,-33 26,-59 59,-59 h 2789 c 33,0 59,26 59,59 v 234 c 0,32 -26,58 -59,58 H 1799 c -33,0 -59,-26 -59,-58" /><path
         id="path102"
         style="fill:none;stroke:#4f81bd;stroke-width:2.0833;stroke-linecap:round;stroke-linejoin:round;stroke-miterlimit:10;stroke-dasharray:none;stroke-opacity:1"
         d="m 1740,565.922 c 0,-33 26,-59 59,-59 h 2789 c 33,0 59,26 59,59 v 234 c 0,32 -26,58 -59,58 H 1799 c -33,0 -59,-26 -59,-58 z" /><path
         id="path104"
         style="fill:#92d050;fill-opacity:1;fill-rule:evenodd;stroke:none"
         d="m 812,565.922 c 0,-33 26,-59 59,-59 h 685 c 32,0 58,26 58,59 v 233 c 0,32 -26,58 -58,58 H 871 c -33,0 -59,-26 -59,-58" /><path
         id="path106"
         style="fill:none;stroke:#4f81bd;stroke-width:2.0833;stroke-linecap:round;stroke-linejoin:round;stroke-miterlimit:10;stroke-dasharray:none;stroke-opacity:1"
         d="m 812,565.922 c 0,-33 26,-59 59,-59 h 685 c 32,0 58,26 58,59 v 233 c 0,32 -26,58 -58,58 H 871 c -33,0 -59,-26 -59,-58 z" /><g
         transform="scale(8.33333)"
         id="g108"><text
           id="text112"
           style="font-variant:normal;font-weight:bold;font-size:15.9689px;font-family:Calibri;-inkscape-font-specification:'Calibri Bold';writing-mode:lr-tb;fill:#000000;fill-opacity:1;fill-rule:nonzero;stroke:none"
           transform="matrix(0,1,0.99944031,0,21.96,70.9106)"><tspan
             y="0"
             id="tspan110"
             sodipodi:role="line"
             x="0" /></text><text
           id="text116"
           style="font-variant:normal;font-weight:bold;font-size:9.96568px;font-family:Calibri;-inkscape-font-specification:'Calibri Bold';writing-mode:lr-tb;fill:#000000;fill-opacity:1;fill-rule:nonzero;stroke:none"
           transform="matrix(-1,0,0,0.99943032,160.2,76.9106)"><tspan
             id="tspan114"
             sodipodi:role="line"
             y="0"
             x="0 4.6800151 7.0800238 12.480049 17.280069 19.680079 24.720098">Single-</tspan></text><text
           id="text120"
           style="font-variant:normal;font-weight:bold;font-size:9.96568px;font-family:Calibri;-inkscape-font-specification:'Calibri Bold';writing-mode:lr-tb;fill:#000000;fill-opacity:1;fill-rule:nonzero;stroke:none"
           transform="matrix(-1,0,0,0.99943032,178.44009,90.1106)"><tspan
             id="tspan118"
             sodipodi:role="line"
             y="0"
             x="0 8.7600412 11.160049 16.560076 21.960091 25.560104 27.960114 31.440132 38.400154 43.08017 46.560188 51.480198 54.960217 60.360237">MinorityStatus</tspan></text><text
           id="text124"
           style="font-variant:normal;font-weight:bold;font-size:9.96568px;font-family:Calibri;-inkscape-font-specification:'Calibri Bold';writing-mode:lr-tb;fill:#000000;fill-opacity:1;fill-rule:nonzero;stroke:none"
           transform="matrix(-1,0,0,0.99943032,431.88087,78.1106)"><tspan
             id="tspan122"
             sodipodi:role="line"
             y="0"
             x="0 6.240027 11.640058 17.040083 22.440109 24.840132 29.880152 32.878643 41.638683 44.038708 49.438732 54.838764 58.438778 60.838799 64.318802 71.278839 75.958855 79.438858 84.358887 87.83889 93.238914">Double-MinorityStatus</tspan></text><text
           id="text128"
           style="font-style:italic;font-variant:normal;font-size:9.96568px;font-family:Calibri;-inkscape-font-specification:'Calibri Italic';writing-mode:lr-tb;fill:#000000;fill-opacity:1;fill-rule:nonzero;stroke:none"
           transform="matrix(-1,0,0,0.99943032,453.60134,95.2706)"><tspan
             id="tspan126"
             sodipodi:role="line"
             y="0"
             x="0 3.0000005 5.2800021 10.440036 12.720053 19.200092 24.360126 32.280155 34.560158 39.720192 42.000191 47.160225 49.440243 54.600277 58.440304 60.720322 67.800339 72.600349 74.880348 77.160355 79.440369 84.600403 88.44043 90.720444 93.00045 98.160484 100.4405 106.68053 111.48054 114.96056 122.88058 128.04062 133.20065 137.6358 140.64066">(in Namibia as well as in Germany) </tspan></text><text
           id="text132"
           style="font-variant:normal;font-weight:bold;font-size:9.96568px;font-family:Calibri;-inkscape-font-specification:'Calibri Bold';writing-mode:lr-tb;fill:#000000;fill-opacity:1;fill-rule:nonzero;stroke:none"
           transform="matrix(0,1,0.99943032,0,146.64,246.231)"><tspan
             id="tspan130"
             sodipodi:role="line"
             y="0"
             x="0 4.8000278 9.3600349 11.880059 15.840075 19.32008 21.720102 27.120129 27.120129 34.080166 39.48019 44.520203 48.000206 55.44022 60.840252 64.440262 69.24028 77.76033 83.160362 88.560387 92.04039 97.440414 104.76044 111.12048 116.16048 119.6405 127.80054 132.72057 138.12059 141.11908 145.0791 150.47913 155.51913 160.43916 165.23918 167.63921 173.03923 173.03923 179.99927 188.15932 190.55933 195.95937 201.35939 204.9594 207.35942 210.83943">Existing networksoftheGerman-speaking minority</tspan></text><text
           id="text136"
           style="font-variant:normal;font-weight:bold;font-size:9.96568px;font-family:Calibri;-inkscape-font-specification:'Calibri Bold';writing-mode:lr-tb;fill:#000000;fill-opacity:1;fill-rule:nonzero;stroke:none"
           transform="matrix(0,1,0.99943032,0,221.76,447.11184)"><tspan
             id="tspan134"
             sodipodi:role="line"
             y="0"
             x="0 6.600018 11.520045 19.68009 23.640106 30.840149 35.760178 42.00021 46.560215 52.200237 55.198761 61.558788 65.158829 70.558861 75.958885">NamsaasFB-Group</tspan></text><text
           id="text140"
           style="font-style:italic;font-variant:normal;font-size:9.00468px;font-family:Calibri;-inkscape-font-specification:'Calibri Italic';writing-mode:lr-tb;fill:#000000;fill-opacity:1;fill-rule:nonzero;stroke:none"
           transform="matrix(0,1,0.99948027,0,233.04,451.551)"><tspan
             id="tspan138"
             sodipodi:role="line"
             y="0"
             x="0 7.079987 11.639974 16.319971 20.879957 23.879944 28.55994 32.87994 39.959927 44.639954 47.639938 49.67992 53.39991 55.439892 60.119884 67.799904">monothematic CMC</tspan></text><text
           id="text146"
           style="font-variant:normal;font-weight:bold;font-size:9.96568px;font-family:Calibri;-inkscape-font-specification:'Calibri Bold';writing-mode:lr-tb;fill:#000000;fill-opacity:1;fill-rule:nonzero;stroke:none"
           transform="matrix(0,1,0.99943032,0,233.04,524.151)"><tspan
             id="tspan142"
             y="0"
             x="0" /><tspan
             id="tspan144"
             sodipodi:role="line"
             y="-10.926224"
             x="-232.44041 -225.84039 -220.92036 -212.76033 -208.80031 -201.60027 -196.68024 -190.4402 -183.24016 -179.76016 -174.72015 -169.32011 -163.5601 -159.36008 -154.44005 -146.28001">Namsaasatentcamp</tspan></text><text
           id="text150"
           style="font-style:italic;font-variant:normal;font-size:9.00468px;font-family:Calibri;-inkscape-font-specification:'Calibri Italic';writing-mode:lr-tb;fill:#000000;fill-opacity:1;fill-rule:nonzero;stroke:none"
           transform="matrix(0,1,0.99948027,0,233.4,314.031)"><tspan
             id="tspan148"
             sodipodi:role="line"
             y="0"
             x="0 4.0800037 8.7600012 12.479991 16.799992 19.558617 22.558603 27.118589 29.877214 33.957218 38.637215 42.357204 46.797207">Face-to-Face </tspan></text><text
           id="text154"
           style="font-style:italic;font-variant:normal;font-weight:bold;font-size:9.96568px;font-family:Calibri;-inkscape-font-specification:'Calibri, BoldItalic';writing-mode:lr-tb;fill:#000000;fill-opacity:1;fill-rule:nonzero;stroke:none"
           transform="matrix(0,1,0.99943032,0,189,463.071)"><tspan
             id="tspan152"
             sodipodi:role="line"
             y="0"
             x="0 8.7600412 11.160065 16.440077 19.920105 25.200117 28.68012 31.080114 36.360153 41.64019 43.920204 47.400211 52.680248 54.960262 61.320293 66.240334 69.720367 77.760368 83.040405 88.320442 93.120445">Migration to Germany </tspan></text></g><path
         id="path156"
         style="fill:#d8d8d8;fill-opacity:1;fill-rule:evenodd;stroke:none"
         d="m 1962,1143.92 h -41 V 938.922 h -83 v 204.998 h -41 l 82,104" /><path
         id="path158"
         style="fill:none;stroke:#4f81bd;stroke-width:2.0833;stroke-linecap:round;stroke-linejoin:round;stroke-miterlimit:10;stroke-dasharray:none;stroke-opacity:1"
         d="m 1962,1143.92 h -41 V 938.922 h -83 v 204.998 h -41 l 82,104 z" /><path
         id="path160"
         style="fill:#d8d8d8;fill-opacity:1;fill-rule:evenodd;stroke:none"
         d="m 1253,1142.92 h -41 V 937.922 h -82 v 204.998 h -42 l 83,104" /><path
         id="path162"
         style="fill:none;stroke:#4f81bd;stroke-width:2.0833;stroke-linecap:round;stroke-linejoin:round;stroke-miterlimit:10;stroke-dasharray:none;stroke-opacity:1"
         d="m 1253,1142.92 h -41 V 937.922 h -82 v 204.998 h -42 l 83,104 z" /><g
         transform="scale(8.33333)"
         id="g164"><text
           id="text168"
           style="font-style:italic;font-variant:normal;font-size:9.96568px;font-family:Calibri;-inkscape-font-specification:'Calibri Italic';writing-mode:lr-tb;fill:#000000;fill-opacity:1;fill-rule:nonzero;stroke:none"
           transform="matrix(0,1,0.99943032,0,119.88,278.871)"><tspan
             id="tspan166"
             sodipodi:role="line"
             y="0"
             x="0 6.4800234 11.640058 16.800091 21.960121 24.240122 29.400156 34.560192 36.840206 39.120209 44.280243 49.440277 54.600311 59.760345 64.92038 70.080414 74.880424 77.040436 81.240448 86.400475 91.560509 94.920517 99.960548 104.16056 107.52057 109.80058 112.08058 117.24062 119.40063 125.88068 131.04071 138.96074 141.24074 146.40077 148.68077 153.72081">Ongoing language contact in Namibia </tspan></text></g><path
         id="path170"
         style="fill:#ffeb99;fill-opacity:1;fill-rule:evenodd;stroke:none"
         d="m 406,3440.92 c 0,-95 28,-172 61,-172 h 153 91 c 34,0 61,77 61,172 v 432 l 302,-74 -302,333 c 0,95 -27,172 -61,172 H 620 467 c -33,0 -61,-77 -61,-172 v -259" /><path
         id="path172"
         style="fill:#6666ff;fill-opacity:1;fill-rule:nonzero;stroke:none"
         d="m 406,3437.92 1,-28 1,-12 1,-10 1,-8 1,-7 2,-12 2,-10 1,-4 1,-5 1,-3 2,-8 5,-15 1,-2 1,-3 1,-2 1,-3 6,-12 1,-1 2,-4 2,-2 1,-2 2,-2 1,-2 6,-6 2,-1 1,-1 6,-3 3,-1 h 255 v 1 h 3 v 1 h 2 v 1 h 2 v 1 l 1,1 h 2 v 1 l 8,8 1,2 2,2 1,2 1,1 2,4 1,1 6,12 1,3 1,2 2,6 1,2 1,3 1,4 2,6 2,8 1,3 2,10 1,4 3,18 2,16 1,11 1,16 1,454 2,-1 36,-9 5,-1 52,-13 5,-1 52,-13 5,-1 52,-13 5,-1 52,-13 5,-1 28,-7 h 2 l -3,3 -1,2 -8,8 -1,2 -9,9 -1,2 -9,9 -1,2 -8,8 -1,2 -9,9 -1,2 -9,9 -1,2 -8,8 -1,2 -9,9 -1,2 -9,9 -1,2 -8,8 -1,2 -9,9 -1,2 -8,8 -1,2 -9,9 -1,2 -9,9 -1,2 -8,8 -1,2 -9,9 -1,2 -9,9 -1,2 -8,8 -1,2 -9,9 -1,2 -9,9 -1,2 -8,8 -1,2 -9,9 -1,2 -8,8 -1,2 -9,9 -1,2 -9,9 -1,2 -8,8 -1,2 -9,9 -1,2 -9,9 -1,2 -8,8 -1,2 -9,9 -1,2 -8,8 -1,23 -1,16 -1,11 -2,16 -3,18 -1,5 -1,4 -1,5 -1,4 -1,3 -2,8 -4,12 -1,2 -1,3 -1,2 -1,3 -7,14 -1,1 -2,4 -2,2 -1,2 -3,3 -1,2 -2,2 -2,1 -2,2 -8,4 -257,1 v -1 h -3 v -1 h -2 v -1 h -2 l -1,-1 v -1 h -2 l -8,-8 -1,-2 -2,-2 -1,-2 -1,-1 -1,-2 -1,-1 -8,-16 -1,-3 -1,-2 -6,-18 -1,-4 -1,-3 -2,-8 -3,-15 -1,-6 -1,-5 -1,-8 -1,-7 -1,-10 -1,-13 -1,-28 z m 3,723 1,13 1,11 1,8 1,7 2,12 1,5 1,4 1,5 3,12 1,3 1,4 3,9 1,2 1,3 1,2 1,3 2,4 1,3 2,4 1,1 3,6 1,1 1,2 2,2 1,2 8,8 h 2 v 1 l 1,1 h 2 v 1 h 2 v 1 h 2 v 1 l 256,-1 3,-1 2,-1 1,-1 2,-1 1,-1 2,-1 4,-4 1,-2 2,-2 1,-2 1,-1 1,-2 1,-1 2,-4 1,-1 2,-4 1,-3 3,-6 1,-3 1,-2 1,-3 1,-2 1,-4 3,-9 4,-16 1,-5 1,-4 2,-12 2,-14 1,-9 1,-11 1,-16 1,-22 1,-2 9,-9 1,-2 8,-8 1,-2 9,-9 1,-2 9,-9 1,-2 8,-8 1,-2 9,-9 1,-2 9,-9 1,-2 8,-8 1,-2 9,-9 1,-2 9,-9 1,-2 8,-8 1,-2 9,-9 1,-2 8,-8 1,-2 9,-9 1,-2 9,-9 1,-2 8,-8 1,-2 9,-9 1,-2 9,-9 1,-2 8,-8 1,-2 9,-9 1,-2 9,-9 1,-2 8,-8 1,-2 9,-9 1,-2 8,-8 1,-2 9,-9 1,-2 9,-9 1,-2 8,-8 1,-2 9,-9 1,-2 9,-9 1,-2 8,-8 1,-2 7,-7 h -3 l -4,1 -5,1 -52,13 -5,1 -56,14 -5,1 -52,13 -5,1 -52,13 -5,1 -52,13 -1,-1 -1,-454 -1,-16 -1,-11 -1,-9 -2,-14 -1,-6 -3,-15 -4,-16 -5,-15 -1,-2 -2,-6 -9,-18 -1,-1 -1,-2 -2,-2 -1,-2 -9,-9 v -1 h -2 v -1 h -2 v -1 h -2 v -1 h -3 v -1 H 462 l -3,1 -4,2 -2,2 -2,1 -6,6 -1,2 -2,2 -1,2 -1,1 -1,2 -1,1 -8,16 -1,3 -1,2 -6,18 -1,4 -1,3 -2,8 -3,15 -1,6 -1,5 -2,16 -1,10 -1,13" /><g
         transform="scale(8.33333)"
         id="g174"><text
           id="text178"
           style="font-variant:normal;font-weight:bold;font-size:9.96568px;font-family:Calibri;-inkscape-font-specification:'Calibri Bold';writing-mode:lr-tb;fill:#000000;fill-opacity:1;fill-rule:nonzero;stroke:none"
           transform="matrix(0,1,0.99943032,0,68.52,419.27107)"><tspan
             id="tspan176"
             sodipodi:role="line"
             y="0"
             x="0 6.600018 11.520045 19.68009 25.080116 30.120127 35.520153 39.000156 42.960175 47.160191 54.840233 62.280251 64.680275 68.160278">Namdeutschwith</tspan></text><text
           id="text182"
           style="font-variant:normal;font-weight:bold;font-size:9.96568px;font-family:Calibri;-inkscape-font-specification:'Calibri Bold';writing-mode:lr-tb;fill:#000000;fill-opacity:1;fill-rule:nonzero;stroke:none"
           transform="matrix(0,1,0.99943032,0,80.76,407.031)"><tspan
             id="tspan180"
             sodipodi:role="line"
             y="0"
             x="0 3.6000128 8.6400242 13.320044 15.720067 19.680082 23.160088 28.200098 28.200098 34.080128 39.480152 41.880177 45.000179 48.120182 53.160194 56.760208 61.80022 67.200241 70.680252 73.080269 78.000298 81.480301 83.880325 89.280357">register differentiation</tspan></text><text
           id="text186"
           style="font-variant:normal;font-weight:bold;font-size:6.48324px;font-family:Calibri;-inkscape-font-specification:'Calibri Bold';writing-mode:lr-tb;fill:#000000;fill-opacity:1;fill-rule:nonzero;stroke:none"
           transform="matrix(0,1,0.99950025,0,76.08,501.711)"><tspan
             id="tspan184"
             y="0"
             x="0">1</tspan></text><text
           id="text190"
           style="font-variant:normal;font-weight:bold;font-size:9.96568px;font-family:Calibri;-inkscape-font-specification:'Calibri Bold';writing-mode:lr-tb;fill:#000000;fill-opacity:1;fill-rule:nonzero;stroke:none"
           transform="matrix(0,1,0.99943032,0,80.76,505.071)"><tspan
             id="tspan188"
             y="0"
             x="0" /></text></g><path
         id="path192"
         style="fill:#d8d8d8;fill-opacity:1;fill-rule:evenodd;stroke:none"
         d="m 1876,3298.92 -83,51 h 41 v 151 h -41 l 83,51 82,-51 h -41 v -151 h 41" /><path
         id="path194"
         style="fill:none;stroke:#4f81bd;stroke-width:2.0833;stroke-linecap:round;stroke-linejoin:round;stroke-miterlimit:10;stroke-dasharray:none;stroke-opacity:1"
         d="m 1876,3298.92 -83,51 h 41 v 151 h -41 l 83,51 82,-51 h -41 v -151 h 41 z" /><path
         id="path196"
         style="fill:none;stroke:#000000;stroke-width:2.0833;stroke-linecap:round;stroke-linejoin:round;stroke-miterlimit:10;stroke-dasharray:none;stroke-opacity:1"
         d="m 1740,322.922 c 0,-12 10,-22 23,-22 h 2862 c 12,0 22,10 22,22 v 89 c 0,12 -10,22 -22,22 H 1763 c -13,0 -23,-10 -23,-22 z" /><g
         transform="scale(8.33333)"
         id="g198"><text
           id="text202"
           style="font-variant:normal;font-weight:bold;font-size:9.96568px;font-family:Calibri;-inkscape-font-specification:'Calibri Bold';writing-mode:lr-tb;fill:#000000;fill-opacity:1;fill-rule:nonzero;stroke:none"
           transform="matrix(-1,0,0,0.99943032,402.36,47.2706)"><tspan
             id="tspan200"
             sodipodi:role="line"
             y="0"
             x="0 6.3600311 11.400042 15.000055 23.160099 28.080128 33.480152">Germany</tspan></text></g><path
         id="path204"
         style="fill:none;stroke:#000000;stroke-width:2.0833;stroke-linecap:round;stroke-linejoin:round;stroke-miterlimit:10;stroke-dasharray:none;stroke-opacity:1"
         d="m 822,322.922 c 0,-13 10,-22 23,-22 h 751 c 13,0 23,9 23,22 v 88 c 0,12 -10,22 -23,22 H 845 c -13,0 -23,-10 -23,-22 z" /><g
         transform="scale(8.33333)"
         id="g206"><text
           id="text210"
           style="font-variant:normal;font-weight:bold;font-size:9.96568px;font-family:Calibri;-inkscape-font-specification:'Calibri Bold';writing-mode:lr-tb;fill:#000000;fill-opacity:1;fill-rule:nonzero;stroke:none"
           transform="matrix(-1,0,0,0.99943032,163.56,46.5506)"><tspan
             id="tspan208"
             sodipodi:role="line"
             y="0"
             x="0 6.6000328 11.520045 19.680075 22.080084 27.48011 29.880117">Namibia</tspan></text><text
           id="text216"
           style="font-style:italic;font-variant:normal;font-size:9.00468px;font-family:Calibri;-inkscape-font-specification:'Calibri Italic';writing-mode:lr-tb;fill:#000000;fill-opacity:1;fill-rule:nonzero;stroke:none"
           transform="matrix(0,1,0.99948027,0,252.24,321.591)"><tspan
             id="tspan212"
             sodipodi:role="line"
             y="0"
             x="0 2.76 6.2399983 8.2800093 12.960007 16.679996 20.999996 23.040005 27.600016 32.160027 36.720039 41.275654 44.040051">(since 1961) </tspan><tspan
             id="tspan214"
             sodipodi:role="line"
             y="0.1200624"
             x="141.95978 144.71979 148.19978 150.23979 154.91978 158.63977 162.95978 164.99979 169.5598 174.11978 178.67976 183.23535 185.99974">(since 2014) </tspan></text></g><path
         id="path218"
         style="fill:#d8d8d8;fill-opacity:1;fill-rule:evenodd;stroke:none"
         d="m 1740,1433.92 c 0,-24 20,-43 44,-43 h 175 c 24,0 44,19 44,43 v 493 c 0,24 -20,43 -44,43 h -175 c -24,0 -44,-19 -44,-43" /><path
         id="path220"
         style="fill:none;stroke:#4f81bd;stroke-width:2.0833;stroke-linecap:round;stroke-linejoin:round;stroke-miterlimit:10;stroke-dasharray:none;stroke-opacity:1"
         d="m 1740,1433.92 c 0,-24 20,-43 44,-43 h 175 c 24,0 44,19 44,43 v 493 c 0,24 -20,43 -44,43 h -175 c -24,0 -44,-19 -44,-43 z" /><g
         transform="scale(8.33333)"
         id="g222"><text
           id="text226"
           style="font-variant:normal;font-weight:bold;font-size:9.96568px;font-family:Calibri;-inkscape-font-specification:'Calibri Bold';writing-mode:lr-tb;fill:#000000;fill-opacity:1;fill-rule:nonzero;stroke:none"
           transform="matrix(0,1,0.99943032,0,222.24,179.751)"><tspan
             id="tspan224"
             sodipodi:role="line"
             y="0"
             x="0 4.6800151 10.080041 15.480067 20.160088 23.760099 29.160116 34.560143 39.960167">Subgroups</tspan></text></g><path
         id="path228"
         style="fill:#d8d8d8;fill-opacity:1;fill-rule:evenodd;stroke:none"
         d="m 1869,2032.92 -82,55 h 41 v 165 h -41 l 82,55 83,-55 h -42 v -165 h 42" /><path
         id="path230"
         style="fill:none;stroke:#4f81bd;stroke-width:2.0833;stroke-linecap:round;stroke-linejoin:round;stroke-miterlimit:10;stroke-dasharray:none;stroke-opacity:1"
         d="m 1869,2032.92 -82,55 h 41 v 165 h -41 l 82,55 83,-55 h -42 v -165 h 42 z" /><g
         transform="scale(8.33333)"
         id="g232"><text
           id="text236"
           style="font-style:italic;font-variant:normal;font-size:9.00468px;font-family:Calibri;-inkscape-font-specification:'Calibri Italic';writing-mode:lr-tb;fill:#000000;fill-opacity:1;fill-rule:nonzero;stroke:none"
           transform="matrix(0,1,0.99948027,0,252.48,149.511)"><tspan
             id="tspan234"
             sodipodi:role="line"
             y="0"
             x="0 2.76 4.7999969 9.4799938 14.159991 16.199987 20.159986 22.199984 26.87998 31.559977 36.239975 38.279972 40.319965 44.03997 46.079967 49.199963 52.919968 54.959965 59.279964 62.75996 64.799957 69.35556 72.119965 74.155563 76.919968 80.039963 82.079956 86.399956 90.959953 95.639954 99.119949 103.79995 105.83556 110.51556 113.27995">(individual circles of friendship) </tspan></text></g><path
         id="path238"
         style="fill:none;stroke:#4579b8;stroke-width:12.5;stroke-linecap:butt;stroke-linejoin:round;stroke-miterlimit:10;stroke-dasharray:100, 37.5;stroke-dashoffset:0;stroke-opacity:1"
         d="M 1655,4782.92 V 299.922" /><g
         transform="scale(8.33333)"
         id="g240"><text
           id="text244"
           style="font-style:italic;font-variant:normal;font-weight:bold;font-size:9.96568px;font-family:Calibri;-inkscape-font-specification:'Calibri, BoldItalic';writing-mode:lr-tb;fill:#000000;fill-opacity:1;fill-rule:nonzero;stroke:none"
           transform="matrix(0,1,0.99943032,0,189,164.991)"><tspan
             id="tspan242"
             sodipodi:role="line"
             y="0"
             x="0 8.7600412 11.160049 16.440077 19.92009 25.200117 28.680136 31.080145 36.360165 41.64019 43.920189 47.400211 52.680233 54.960236 61.320263 66.24028 69.720291 77.760323 83.040337 88.320343 93.120377">Migration to Germany </tspan></text></g><path
         id="path246"
         style="fill:#d8d8d8;fill-opacity:1;fill-rule:evenodd;stroke:none"
         d="m 1477,2815.92 v 41 h -121 v 83 h 121 v 41 l 100,-82" /><path
         id="path248"
         style="fill:none;stroke:#4f81bd;stroke-width:2.0833;stroke-linecap:round;stroke-linejoin:round;stroke-miterlimit:10;stroke-dasharray:none;stroke-opacity:1"
         d="m 1477,2815.92 v 41 h -121 v 83 h 121 v 41 l 100,-82 z" /><path
         id="path250"
         style="fill:#d8d8d8;fill-opacity:1;fill-rule:evenodd;stroke:none"
         d="m 2265,2816.92 v 41 h -116 v 83 h 116 v 41 l 95,-82" /><path
         id="path252"
         style="fill:none;stroke:#4f81bd;stroke-width:2.0833;stroke-linecap:round;stroke-linejoin:round;stroke-miterlimit:10;stroke-dasharray:none;stroke-opacity:1"
         d="m 2265,2816.92 v 41 h -116 v 83 h 116 v 41 l 95,-82 z" /><path
         id="path254"
         style="fill:#d8d8d8;fill-opacity:1;fill-rule:evenodd;stroke:none"
         d="m 2962,1924.92 c 0,-27 22,-49 48,-49 h 194 c 27,0 48,22 48,49 v 2122 c 0,27 -21,48 -48,48 h -194 c -26,0 -48,-21 -48,-48" /><path
         id="path256"
         style="fill:none;stroke:#4f81bd;stroke-width:2.0833;stroke-linecap:round;stroke-linejoin:round;stroke-miterlimit:10;stroke-dasharray:none;stroke-opacity:1"
         d="m 2962,1924.92 c 0,-27 22,-49 48,-49 h 194 c 27,0 48,22 48,49 v 2122 c 0,27 -21,48 -48,48 h -194 c -26,0 -48,-21 -48,-48 z" /><path
         id="path258"
         style="fill:#d8d8d8;fill-opacity:1;fill-rule:evenodd;stroke:none"
         d="m 3619,2902.92 v 42 h -158 v 82 h 158 v 41 l 79,-82" /><path
         id="path260"
         style="fill:none;stroke:#4f81bd;stroke-width:2.0833;stroke-linecap:round;stroke-linejoin:round;stroke-miterlimit:10;stroke-dasharray:none;stroke-opacity:1"
         d="m 3619,2902.92 v 42 h -158 v 82 h 158 v 41 l 79,-82 z" /><path
         id="path262"
         style="fill:#ffeb99;fill-opacity:1;fill-rule:evenodd;stroke:none"
         d="m 3796,2046.92 c 0,-37 30,-66 66,-66 h 266 c 36,0 66,29 66,66 v 1878 c 0,36 -30,66 -66,66 h -266 c -36,0 -66,-30 -66,-66" /><path
         id="path264"
         style="fill:none;stroke:#4f81bd;stroke-width:2.0833;stroke-linecap:round;stroke-linejoin:round;stroke-miterlimit:10;stroke-dasharray:none;stroke-opacity:1"
         d="m 3796,2046.92 c 0,-37 30,-66 66,-66 h 266 c 36,0 66,29 66,66 v 1878 c 0,36 -30,66 -66,66 h -266 c -36,0 -66,-30 -66,-66 z" /><g
         transform="scale(8.33333)"
         id="g266"><text
           id="text270"
           style="font-variant:normal;font-weight:bold;font-size:9.96568px;font-family:Calibri;-inkscape-font-specification:'Calibri Bold';writing-mode:lr-tb;fill:#000000;fill-opacity:1;fill-rule:nonzero;stroke:none"
           transform="matrix(0,1,0.99943032,0,367.32,289.071)"><tspan
             id="tspan268"
             sodipodi:role="line"
             y="0"
             x="0 5.4000258 10.800056 14.760073 17.160095 20.6401 23.040123 27.720139 35.040165 39.960194 43.440197 46.9202 49.320225 52.800228 58.200253 63.600281 68.640289 74.880325 78.360329 86.040375 91.440407 96.840431 104.16046 109.08048 114.48051 119.76054 123.24055 128.64058 133.68059">positiveattitudestooneanother</tspan></text><text
           id="text274"
           style="font-style:italic;font-variant:normal;font-size:9.96568px;font-family:Calibri;-inkscape-font-specification:'Calibri Italic';writing-mode:lr-tb;fill:#000000;fill-opacity:1;fill-rule:nonzero;stroke:none"
           transform="matrix(0,1,0.99943032,0,382.56,292.19078)"><tspan
             id="tspan272"
             sodipodi:role="line"
             y="0"
             x="0 5.1551704 8.1551809 11.160054 15.960064 20.160072 23.520079 25.800079 30.240084 35.035233 37.560108 39.840122 44.040134 49.200161 54.360195 59.520229 61.800232 65.16024 67.440239 71.880241 76.680252 78.960274 85.800308 87.960327 93.120361 97.920372 103.08041 108.24044 112.68044 114.96044 120.00047 123.36049 128.52052">affective, cognitive &amp; behavioral</tspan></text><text
           id="text278"
           style="font-variant:normal;font-weight:bold;font-size:9.96568px;font-family:Calibri;-inkscape-font-specification:'Calibri Bold';writing-mode:lr-tb;fill:#000000;fill-opacity:1;fill-rule:nonzero;stroke:none"
           transform="matrix(0,1,0.99943032,0,382.56,423.11136)"><tspan
             id="tspan276"
             y="0"
             x="0" /></text><text
           id="text284"
           style="font-style:italic;font-variant:normal;font-size:9.96568px;font-family:Calibri;-inkscape-font-specification:'Calibri Italic';writing-mode:lr-tb;fill:#000000;fill-opacity:1;fill-rule:nonzero;stroke:none"
           transform="matrix(0,1,0.99943032,0,521.04,239.03049)"><tspan
             id="tspan280"
             sodipodi:role="line"
             y="0"
             x="0 3.0000153 6.3600211 11.52005 13.800067 17.640095 21.000099 24.360115 29.160124 34.32016 39.48019 42.840199 48.000233 52.800243 57.960278 60.240292 64.080322 69.240349 73.440361 75.72036 80.880394 83.160393 85.440414 90.600449 95.760475 100.92051 106.08054 109.92057 112.20058 117.36062 122.40066 127.56069 129.8407 134.63585 138.95589 144.12077 147.48079 152.28081 156.12083 159.96086 162.24088 167.40091 169.68092 173.88094 179.04097 186.961 194.88103 200.04105 205.20108 207.48109 209.76111 214.92044 219.72044 224.76048 228.12048 230.40048 233.7605 238.2005">(to strengthen social bonds and express a common identity </tspan><tspan
             id="tspan282"
             sodipodi:role="line"
             y="12.246977"
             x="45.960182 51.120216 55.920227 59.280231 66.360252 71.160263 75.960274 81.120308 83.400322 85.680321 90.840355 96.000389 98.280396 102.7204 105.0004 110.16043 115.32047 120.4805 122.76051 126.60053 128.88054 134.04057 139.20061 144.36064 146.64067 151.8007 155.64073 157.92075 163.08078 165.2408 170.40083 173.76083 178.92087 184.07603 189.23607 192.24094">between individuals and as a group) </tspan></text></g><path
         id="path286"
         style="fill:#d8d8d8;fill-opacity:1;fill-rule:evenodd;stroke:none"
         d="m 2666,2986.92 52,82 v -41 h 155 v 41 l 52,-82 -52,-82 v 41 h -155 v -41" /><path
         id="path288"
         style="fill:none;stroke:#4f81bd;stroke-width:2.0833;stroke-linecap:round;stroke-linejoin:round;stroke-miterlimit:10;stroke-dasharray:none;stroke-opacity:1"
         d="m 2666,2986.92 52,82 v -41 h 155 v 41 l 52,-82 -52,-82 v 41 h -155 v -41 z" /><path
         id="path290"
         style="fill:#000000;fill-opacity:1;fill-rule:nonzero;stroke:none"
         d="m 3436,3930.92 307,-404 1,-2 -1,-2 -3,-1 -2,2 -307,403 v 3 l 1,2 h 2 z m 320,-384 10,-55 -50,25" /><g
         transform="scale(8.33333)"
         id="g292"><text
           id="text298"
           style="font-style:italic;font-variant:normal;font-size:9.00468px;font-family:Calibri;-inkscape-font-specification:'Calibri Italic';writing-mode:lr-tb;fill:#000000;fill-opacity:1;fill-rule:nonzero;stroke:none"
           transform="matrix(0,1,0.99948027,0,336.84,376.311)"><tspan
             id="tspan294"
             sodipodi:role="line"
             y="0"
             x="0 2.76 10.800005 15.120006 17.878632 22.558628 26.878628 30.358625 33.834229 36.598625">(We-ness) </tspan><tspan
             id="tspan296"
             sodipodi:role="line"
             y="-0.1200624"
             x="-135.95966 -133.20406 -128.51967 -124.19967 -121.07965 -117.35966 -113.16406 -108.47967 -105.47968 -103.43967 -98.879684 -94.199684 -92.159676 -87.479683 -83.99968 -81.959671 -77.279678 -75.23967 -70.679672 -67.559662 -62.999672 -58.32407 -53.644073 -50.879677">(perception as a group) </tspan></text></g><path
         id="path300"
         style="fill:#000000;fill-opacity:1;fill-rule:nonzero;stroke:none"
         d="m 3431,2072.92 307,404 2,1 h 3 l 1,-2 -1,-3 -307,-404 -3,-1 -2,1 -1,2 z m 285,411 50,24 -10,-55" /><g
         transform="scale(8.33333)"
         id="g302"><text
           id="text332"
           style="font-variant:normal;font-weight:normal;font-size:9.0005px;font-family:Calibri;-inkscape-font-specification:Calibri;writing-mode:lr-tb;fill:#000000;fill-opacity:1;fill-rule:nonzero;stroke:none"
           transform="matrix(0.60887246,0.79350283,0.79307597,-0.60856656,417.6,261.591)"><tspan
             id="tspan304"
             y="0"
             x="0">I</tspan><tspan
             id="tspan306"
             y="0.046679828"
             x="2.3042214">s</tspan><tspan
             id="tspan308"
             y="-0.015073311"
             x="5.7351146"> </tspan><tspan
             id="tspan310"
             y="0.0094475038"
             x="7.871119">t</tspan><tspan
             id="tspan312"
             y="0.049528293"
             x="10.775194">r</tspan><tspan
             id="tspan314"
             y="0.03869212"
             x="13.942678">i</tspan><tspan
             id="tspan316"
             y="-0.032021958"
             x="16.005638">g</tspan><tspan
             id="tspan318"
             y="-0.0051392429"
             x="20.109419">g</tspan><tspan
             id="tspan320"
             y="-0.029173493"
             x="24.47661">e</tspan><tspan
             id="tspan322"
             y="0.042027153"
             x="28.916836">r</tspan><tspan
             id="tspan324"
             y="0.031190977"
             x="32.08432">i</tspan><tspan
             id="tspan326"
             y="0.033552848"
             x="34.052097">n</tspan><tspan
             id="tspan328"
             y="-0.019239355"
             x="38.850914">g</tspan><tspan
             id="tspan330"
             y="-0.065432519"
             x="43.049877"> </tspan></text><text
           id="text336"
           style="font-style:italic;font-variant:normal;font-size:9.96568px;font-family:Calibri;-inkscape-font-specification:'Calibri Italic';writing-mode:lr-tb;fill:#000000;fill-opacity:1;fill-rule:nonzero;stroke:none"
           transform="matrix(0,1,0.99943032,0,402.48,259.311)"><tspan
             id="tspan334"
             sodipodi:role="line"
             y="0"
             x="0 3.0000005 8.1600342 11.520049 16.680079 21.835249 27.000147 29.280163 34.440197 39.600227 42.960239 50.880268 53.520279 55.800297 60.960331 66.120361 68.395515 73.56041 78.720444 83.880478 86.160477 88.440483 92.640488 94.920509 100.08054 102.36054 106.1957 111.3606 113.6406 118.68064 123.12064 125.40067 130.55583 133.5607 135.84071 141.00075 143.28076 147.11592 152.28082 157.44086 160.80086 165.60086 167.88087 173.04091 176.40092 178.68094 182.88095 188.04099 193.19615 196.20102 198.48103 200.76036 204.96037 208.31549 211.32039">(group norm: no public display of dispute or conflict) </tspan></text><text
           id="text376"
           style="font-variant:normal;font-weight:normal;font-size:9.0005px;font-family:Calibri;-inkscape-font-specification:Calibri;writing-mode:lr-tb;fill:#000000;fill-opacity:1;fill-rule:nonzero;stroke:none"
           transform="matrix(-0.60887246,0.79350283,0.79307597,0.60856656,443.4,423.351)"><tspan
             id="tspan338"
             y="0"
             x="0">P</tspan><tspan
             id="tspan340"
             y="-0.020283679"
             x="4.7036352">o</tspan><tspan
             id="tspan342"
             y="0.032508522"
             x="9.5024519">s</tspan><tspan
             id="tspan344"
             y="-0.00097323005"
             x="13.006381">i</tspan><tspan
             id="tspan346"
             y="-0.0033351008"
             x="14.974158">t</tspan><tspan
             id="tspan348"
             y="0.029660087"
             x="17.973415">v</tspan><tspan
             id="tspan350"
             y="0.0027773718"
             x="22.077196">e</tspan><tspan
             id="tspan352"
             y="-0.068423271"
             x="26.517422">l</tspan><tspan
             id="tspan354"
             y="0.0022908067"
             x="28.580381">y</tspan><tspan
             id="tspan356"
             y="-0.02459191"
             x="32.684162"> </tspan><tspan
             id="tspan358"
             y="13.013168"
             x="0.00079026801">c</tspan><tspan
             id="tspan360"
             y="13.030603"
             x="3.7681279">o</tspan><tspan
             id="tspan362"
             y="12.988161"
             x="8.6399803">n</tspan><tspan
             id="tspan364"
             y="12.967877"
             x="13.343615">n</tspan><tspan
             id="tspan366"
             y="13.042828"
             x="17.974205">o</tspan><tspan
             id="tspan368"
             y="13.000386"
             x="22.846058">t</tspan><tspan
             id="tspan370"
             y="13.033381"
             x="25.845314">e</tspan><tspan
             id="tspan372"
             y="13.057415"
             x="30.212505">d</tspan><tspan
             id="tspan374"
             y="13.037131"
             x="34.916142"> </tspan></text><text
           id="text380"
           style="font-variant:normal;font-weight:bold;font-size:9.96568px;font-family:Calibri;-inkscape-font-specification:'Calibri Bold';writing-mode:lr-tb;fill:#000000;fill-opacity:1;fill-rule:nonzero;stroke:none"
           transform="matrix(0,1,0.99943032,0,470.64,262.911)"><tspan
             id="tspan378"
             sodipodi:role="line"
             y="0"
             x="0 4.5600076 8.1600208 13.200031 18.600058 24.000084 29.040094 34.440121 40.080139 45.480167 49.440182 56.760208 62.16024 67.560257 69.960281 74.88031 80.280334 84.960358 90.360382 95.280411 99.960426 107.28046 111.48048 116.88051 122.28053 125.76054 130.68056 134.88058 140.64059 146.04063 151.44066 156.48067 161.88069 167.16072 175.32077 180.36078 185.7608">Frequentuseoflanguagecontactphenomena</tspan></text><text
           id="text384"
           style="font-variant:normal;font-weight:bold;font-size:9.96568px;font-family:Calibri;-inkscape-font-specification:'Calibri Bold';writing-mode:lr-tb;fill:#000000;fill-opacity:1;fill-rule:nonzero;stroke:none"
           transform="matrix(0,1,0.99943032,0,482.88,267.8308)"><tspan
             id="tspan382"
             sodipodi:role="line"
             y="0"
             x="0">=</tspan></text></g><g
         transform="scale(8.33333)"
         id="g386"><text
           id="text390"
           style="font-variant:normal;font-weight:bold;font-size:9.96568px;font-family:Calibri;-inkscape-font-specification:'Calibri Bold';writing-mode:lr-tb;fill:#0065ff;fill-opacity:1;fill-rule:nonzero;stroke:none"
           transform="matrix(0,1,0.99943032,0,482.88,275.031)"><tspan
             id="tspan388"
             sodipodi:role="line"
             y="0"
             x="0 4.6800199 8.2800331 13.680063 19.08009 24.48011 27.478601 31.438618 36.838642 41.878654 46.078674 48.478695 51.598698 53.998722 60.598759 62.998783 68.398804 70.798828 76.198853 83.397652 88.31768 93.717705 101.39775 106.79778 109.1978 114.23782 117.23631 121.43633 126.83636 132.23639 136.1964 139.67641 143.27641 148.67644 152.87646 156.35646 158.75648 164.15652 169.55655">group-specificidio–anddia-constructions</tspan></text></g><path
         id="path392"
         style="fill:#0065ff;fill-opacity:1;fill-rule:nonzero;stroke:none"
         d="m 4033,2291.92 h 5 v 1445 h -5 z" /><text
         transform="matrix(0,1,1,0,0,0)"
         id="text428"
         y="942.61975"
         x="5640.3916"
         style="font-style:normal;font-weight:normal;font-size:250px;line-height:1.25;font-family:sans-serif;fill:#000000;fill-opacity:1;stroke:none;stroke-width:6.25"
         xml:space="preserve"><tspan
           style="stroke-width:6.25"
           y="942.61975"
           x="5640.3916"
           id="tspan426"
           sodipodi:role="line" /></text><text
         transform="matrix(0,1,1,0,0,0)"
         id="text432"
         y="1195.5178"
         x="7671.2388"
         style="font-style:normal;font-weight:normal;font-size:250px;line-height:1.25;font-family:sans-serif;fill:#000000;fill-opacity:1;stroke:none;stroke-width:6.25"
         xml:space="preserve"><tspan
           style="stroke-width:6.25"
           y="1195.5178"
           x="7671.2388"
           id="tspan430"
           sodipodi:role="line" /></text><text
         transform="matrix(0,1,1,0,0,0)"
         id="text1277"
         y="4844.5557"
         x="3663.2212"
         style="font-style:normal;font-weight:normal;font-size:66.6667px;line-height:1.25;font-family:sans-serif;fill:#000000;fill-opacity:1;stroke:none;stroke-width:6.25"
         xml:space="preserve"><tspan
           style="font-size:66.6667px;stroke-width:6.25"
           y="4844.5557"
           x="3663.2212"
           id="tspan1275"
           sodipodi:role="line"><tspan
   id="tspan1283"
   style="font-size:65%;baseline-shift:super">1</tspan>(see Wiese &amp; Bracke 2019)</tspan></text></g></g></svg>
